<svg width="24" height="24" viewBox="0 0 24 24" fill="none" xmlns="http://www.w3.org/2000/svg">
<path d="M3 11C3.26521 11 3.51957 11.1054 3.7071 11.2929C3.89464 11.4804 4 11.7348 4 12C3.98809 13.873 4.62971 15.6916 5.81434 17.1425C6.99897 18.5933 8.65247 19.5857 10.49 19.9486C12.3276 20.3115 14.2342 20.0223 15.8815 19.1308C17.5288 18.2392 18.8136 16.8012 19.5147 15.0643C20.2158 13.3273 20.2892 11.4003 19.7224 9.61508C19.1556 7.82984 17.9839 6.29813 16.4093 5.28378C14.8347 4.26942 12.9556 3.83591 11.0957 4.05791C9.23587 4.27991 7.51164 5.14352 6.22 6.5H8.62C8.88521 6.5 9.13957 6.60536 9.3271 6.79289C9.51464 6.98043 9.62 7.23478 9.62 7.5C9.62 7.76522 9.51464 8.01957 9.3271 8.20711C9.13957 8.39464 8.88521 8.5 8.62 8.5H4.09C3.82478 8.5 3.57043 8.39464 3.38289 8.20711C3.19535 8.01957 3.09 7.76522 3.09 7.5V3C3.09 2.73478 3.19535 2.48043 3.38289 2.29289C3.57043 2.10536 3.82478 2 4.09 2C4.35521 2 4.60957 2.10536 4.7971 2.29289C4.98464 2.48043 5.09 2.73478 5.09 3V4.77C6.75533 3.17806 8.91925 2.20995 11.216 2.02933C13.5127 1.84871 15.8014 2.46664 17.6951 3.77869C19.5888 5.09074 20.9714 7.01641 21.6092 9.23019C22.2469 11.444 22.1008 13.8101 21.1954 15.9285C20.29 18.047 18.6809 19.7878 16.6401 20.8568C14.5993 21.9258 12.252 22.2574 9.99496 21.7955C7.73792 21.3336 5.7096 20.1065 4.25286 18.3217C2.79613 16.5369 2.00033 14.3038 2 12C2 11.7348 2.10535 11.4804 2.29289 11.2929C2.48043 11.1054 2.73478 11 3 11Z" fill="black"/>
</svg>
